<svg width="116" height="116" viewBox="0 0 116 116" fill="none" xmlns="http://www.w3.org/2000/svg">
<path d="M18.2789 95.4104L23.98 74.2313C19.3822 65.981 17.9215 56.3535 19.8658 47.1156C21.8101 37.8777 27.029 29.649 34.565 23.9394C42.1009 18.2299 51.4483 15.4225 60.8919 16.0325C70.3355 16.6424 79.2418 20.6288 85.9766 27.26C92.7114 33.8913 96.8228 42.7227 97.5565 52.1335C98.2901 61.5444 95.5968 70.9036 89.9707 78.4936C84.3446 86.0836 76.1631 91.3953 66.9275 93.454C57.692 95.5128 48.0218 94.1804 39.6916 89.7015L18.2789 95.4104ZM40.7241 81.7761L42.0484 82.5597C48.0821 86.1269 55.1294 87.6031 62.0921 86.7582C69.0548 85.9133 75.5417 82.7947 80.5419 77.8885C85.5421 72.9823 88.7748 66.5641 89.7362 59.634C90.6976 52.7039 89.3337 45.6512 85.857 39.575C82.3804 33.4988 76.9862 28.7404 70.5152 26.0413C64.0442 23.3423 56.8598 22.8542 50.0816 24.6531C43.3035 26.452 37.3123 30.4369 33.0417 35.9867C28.7711 41.5366 26.461 48.3396 26.4714 55.3358C26.4657 61.1367 28.0741 66.8254 31.1176 71.7686L31.9481 73.1343L28.7608 84.9552L40.7241 81.7761Z" fill="#00D95F"/>
<path fill-rule="evenodd" clip-rule="evenodd" d="M72.865 60.774C72.0887 60.1495 71.1797 59.7099 70.2073 59.4887C69.2349 59.2676 68.2247 59.2707 67.2537 59.4979C65.7948 60.1024 64.8521 62.386 63.9094 63.5278C63.7106 63.8015 63.4185 63.9934 63.0879 64.0676C62.7573 64.1418 62.411 64.0932 62.1138 63.9308C56.7726 61.8441 52.2955 58.0175 49.4098 53.0725C49.1637 52.764 49.0472 52.3722 49.0848 51.9796C49.1225 51.5871 49.3114 51.2245 49.6118 50.9681C50.6632 49.9298 51.4352 48.6439 51.8563 47.2293C51.9498 45.6688 51.5914 44.1145 50.8238 42.7516C50.2304 40.8409 49.1011 39.1396 47.5693 37.8486C46.7792 37.4942 45.9032 37.3754 45.0469 37.5065C44.1907 37.6376 43.3907 38.013 42.7436 38.5875C41.6201 39.5543 40.7284 40.7601 40.1341 42.1162C39.5397 43.4723 39.2579 44.9442 39.3094 46.4233C39.3129 47.2539 39.4184 48.081 39.6237 48.886C40.1449 50.8201 40.9464 52.6679 42.0029 54.371C42.7651 55.6757 43.5968 56.9387 44.4943 58.1546C47.4111 62.1486 51.0777 65.5397 55.2904 68.1397C57.4044 69.4609 59.6638 70.5352 62.024 71.3412C64.4757 72.4497 67.1827 72.8753 69.8574 72.5726C71.3813 72.3425 72.8252 71.7423 74.062 70.8249C75.2988 69.9075 76.2906 68.7009 76.9501 67.3114C77.3375 66.4719 77.4551 65.5335 77.2867 64.6248C76.8827 62.7666 74.3913 61.6696 72.865 60.774Z" fill="#00D95F"/>
</svg>
